<?xml version="1.0" standalone="no"?>
<!DOCTYPE svg PUBLIC "-//W3C//DTD SVG 20010904//EN"
 "http://www.w3.org/TR/2001/REC-SVG-20010904/DTD/svg10.dtd">
<svg version="1.0" xmlns="http://www.w3.org/2000/svg"
 width="312.000000pt" height="312.000000pt" viewBox="0 0 512.000000 512.000000"
 preserveAspectRatio="xMidYMid meet">

<g transform="translate(0.000000,512.000000) scale(0.100000,-0.100000)"
fill="#000000" stroke="none">
<path d="M0 2560 l0 -2560 2560 0 2560 0 0 2560 0 2560 -2560 0 -2560 0 0
-2560z m4745 1966 c39 -17 55 -42 55 -89 0 -43 -6 -49 -155 -180 -158 -138
-479 -465 -635 -648 -731 -854 -1257 -1837 -1529 -2859 -35 -131 -56 -161
-115 -163 -22 -1 -46 7 -61 19 -18 14 -1602 1724 -1942 2097 -34 37 -43 54
-43 82 0 49 15 74 55 91 47 19 976 21 1015 1 14 -7 167 -176 341 -376 174
-200 323 -370 331 -378 13 -13 23 1 84 114 377 700 1085 1409 1969 1970 210
133 561 333 586 333 5 0 25 -6 44 -14z"/>
</g>
</svg>
