<?xml version="1.0" standalone="no"?>
<!DOCTYPE svg PUBLIC "-//W3C//DTD SVG 20010904//EN"
 "http://www.w3.org/TR/2001/REC-SVG-20010904/DTD/svg10.dtd">
<svg version="1.0" xmlns="http://www.w3.org/2000/svg"
 width="900.000000pt" height="473.000000pt" viewBox="0 0 900.000000 473.000000"
 preserveAspectRatio="xMidYMid meet">

<g transform="translate(0.000000,473.000000) scale(0.100000,-0.100000)"
fill="#000000" stroke="none">
<path d="M4280 4553 c-284 -30 -544 -104 -783 -224 -698 -351 -1165 -1031
-1236 -1799 -41 -433 35 -842 224 -1220 256 -510 675 -892 1202 -1096 139 -54
180 -55 226 -4 l27 30 0 231 0 230 -62 -8 c-102 -13 -286 -8 -372 10 -43 10
-101 29 -130 45 -61 32 -144 113 -168 162 -9 19 -37 78 -62 130 -54 115 -118
196 -190 244 -65 43 -117 101 -110 121 10 25 77 37 140 26 116 -22 232 -111
319 -246 60 -93 128 -157 205 -194 50 -24 66 -26 175 -25 101 0 131 4 190 25
l70 25 8 49 c10 60 66 179 102 218 15 16 25 30 23 32 -2 2 -48 11 -103 20
-417 66 -679 240 -805 534 -102 235 -133 567 -76 795 32 124 101 259 173 338
l25 26 -21 83 c-28 110 -28 254 -1 369 33 135 39 149 75 156 88 16 343 -79
532 -198 57 -36 66 -39 95 -29 72 22 267 53 382 60 220 13 401 -1 599 -45
l107 -23 97 59 c192 119 435 202 507 174 20 -8 63 -143 77 -243 14 -95 5 -219
-20 -296 l-19 -58 51 -66 c59 -78 127 -217 153 -316 26 -97 26 -399 0 -529
-23 -116 -75 -260 -127 -352 -98 -171 -307 -322 -545 -393 -58 -18 -283 -61
-316 -61 -6 0 4 -16 21 -35 60 -69 102 -179 115 -305 3 -30 6 -209 6 -397 l0
-341 26 -31 c39 -47 78 -49 187 -12 207 72 477 226 655 375 393 327 695 834
777 1302 41 235 49 526 20 738 -66 495 -286 937 -640 1291 -358 358 -818 582
-1312 640 -115 13 -398 18 -493 8z"/>
</g>
</svg>
