<?xml version="1.0" standalone="no"?>
<!DOCTYPE svg PUBLIC "-//W3C//DTD SVG 20010904//EN"
 "http://www.w3.org/TR/2001/REC-SVG-20010904/DTD/svg10.dtd">
<svg version="1.0" xmlns="http://www.w3.org/2000/svg"
 width="256.000000pt" height="256.000000pt" viewBox="0 0 256.000000 256.000000"
 preserveAspectRatio="xMidYMid meet">

<g transform="translate(0.000000,256.000000) scale(0.100000,-0.100000)"
fill="#000000" stroke="none">
<path d="M1205 2542 c-145 -47 -654 -327 -874 -479 -143 -100 -176 -136 -189
-208 -43 -224 -43 -925 -1 -1150 10 -52 18 -66 61 -107 104 -99 463 -320 768
-472 208 -103 284 -131 334 -122 156 29 804 390 1031 573 94 76 104 130 112
598 6 342 -5 576 -31 690 -18 75 -44 100 -256 240 -333 221 -793 457 -884 454
-11 0 -43 -8 -71 -17z m-124 -559 c49 -48 89 -93 89 -100 0 -8 -13 -13 -39
-13 l-38 0 -7 -52 c-3 -29 -6 -151 -6 -270 l0 -218 200 0 201 0 -1 208 c0 114
-1 213 0 220 0 10 24 12 102 10 l102 -3 -3 -538 -3 -537 46 0 c32 0 46 -4 46
-13 0 -15 -127 -148 -165 -173 -23 -15 -26 -14 -52 4 -48 34 -165 161 -158
172 3 5 24 10 46 10 l39 0 0 230 0 230 -200 0 -201 0 1 -182 c0 -101 1 -189 0
-195 0 -10 -27 -13 -100 -13 -73 0 -100 3 -101 13 0 6 0 213 1 459 1 246 -2
490 -6 543 l-7 95 -38 0 c-48 0 -49 13 -6 61 46 52 145 139 158 139 7 0 51
-39 100 -87z"/>
</g>
</svg>
