<?xml version="1.0" standalone="no"?>
<!DOCTYPE svg PUBLIC "-//W3C//DTD SVG 20010904//EN"
 "http://www.w3.org/TR/2001/REC-SVG-20010904/DTD/svg10.dtd">
<svg version="1.0" xmlns="http://www.w3.org/2000/svg"
 width="256.000000pt" height="256.000000pt" viewBox="0 0 256.000000 256.000000"
 preserveAspectRatio="xMidYMid meet">

<g transform="translate(0.000000,256.000000) scale(0.100000,-0.100000)"
fill="#000000" stroke="none">
<path d="M1485 2550 c-33 -14 -1140 -1131 -1179 -1190 -59 -88 -88 -195 -89
-320 -1 -124 17 -202 69 -300 29 -56 83 -116 322 -357 258 -260 294 -293 354
-322 98 -46 193 -64 308 -57 200 11 265 48 492 279 186 188 206 217 193 283
-8 44 -57 100 -100 114 -72 24 -94 10 -281 -170 -96 -92 -190 -176 -211 -186
-57 -28 -204 -27 -258 3 -58 31 -537 517 -565 573 -31 60 -37 151 -16 224 16
54 30 71 277 326 296 306 303 310 436 310 116 -1 142 -16 323 -194 85 -84 166
-160 180 -170 34 -22 107 -21 147 4 64 38 89 118 59 182 -9 19 -97 114 -194
210 -156 155 -186 179 -253 212 -42 20 -84 36 -93 36 -9 0 -16 3 -16 8 0 4 59
66 131 137 72 72 137 142 145 157 22 41 18 109 -9 149 -38 57 -115 83 -172 59z"/>
<path d="M1073 1151 c-34 -22 -60 -63 -64 -102 -5 -60 2 -82 40 -120 l39 -39
585 0 586 0 36 31 c65 58 68 154 5 214 l-31 30 -582 3 c-563 2 -583 2 -614
-17z"/>
</g>
</svg>
