<?xml version="1.0" standalone="no"?>
<!DOCTYPE svg PUBLIC "-//W3C//DTD SVG 20010904//EN"
 "http://www.w3.org/TR/2001/REC-SVG-20010904/DTD/svg10.dtd">
<svg version="1.0" xmlns="http://www.w3.org/2000/svg"
 width="512.000000pt" height="512.000000pt" viewBox="0 0 512.000000 512.000000"
 preserveAspectRatio="xMidYMid meet">

<g transform="translate(0.000000,512.000000) scale(0.100000,-0.100000)"
fill="#000000" stroke="none">
<path d="M2325 5105 c-425 -55 -817 -247 -1121 -549 -307 -306 -497 -700 -549
-1136 -27 -229 -14 -433 44 -675 171 -708 728 -1588 1573 -2485 218 -231 250
-260 289 -260 38 0 97 55 329 305 931 1004 1479 1936 1575 2678 73 565 -134
1156 -550 1573 -286 286 -637 467 -1050 539 -127 23 -404 28 -540 10z m450
-1053 c325 -89 554 -320 641 -648 27 -103 26 -312 -3 -419 -59 -217 -191 -403
-369 -518 -570 -369 -1317 6 -1361 682 -16 248 77 490 257 671 132 131 282
211 465 246 94 18 278 11 370 -14z"/>
</g>
</svg>
