<?xml version="1.0" standalone="no"?>
<!DOCTYPE svg PUBLIC "-//W3C//DTD SVG 20010904//EN"
 "http://www.w3.org/TR/2001/REC-SVG-20010904/DTD/svg10.dtd">
<svg version="1.0" xmlns="http://www.w3.org/2000/svg"
 width="900.000000pt" height="900.000000pt" viewBox="0 0 900.000000 900.000000"
 preserveAspectRatio="xMidYMid meet">

<g transform="translate(0.000000,900.000000) scale(0.100000,-0.100000)"
fill="#000000" stroke="none">
<path d="M7480 7623 c-65 -37 -134 -90 -225 -172 l-79 -71 -1326 -2 -1325 -3
0 -1425 0 -1425 1428 -3 1427 -2 0 1417 0 1416 68 67 c37 36 96 91 132 121
l64 56 -45 26 c-55 33 -62 33 -119 0z m-394 -314 c3 -6 -15 -33 -41 -62 -413
-465 -721 -892 -1065 -1479 -34 -60 -64 -108 -67 -108 -2 0 -70 59 -151 130
-84 75 -171 142 -202 158 -51 25 -66 27 -197 30 -79 2 -143 0 -143 -5 0 -4 28
-26 61 -48 192 -127 390 -432 518 -799 17 -48 34 -93 37 -98 4 -5 50 73 103
174 327 617 706 1227 1041 1673 129 173 318 400 326 392 7 -7 6 -2668 -1
-2675 -4 -4 -615 -7 -1358 -7 l-1352 0 -3 1359 c-2 1081 0 1361 10 1368 19 12
2476 9 2484 -3z"/>
<path d="M1350 5950 l0 -1430 1428 3 1427 2 0 1425 0 1425 -1427 3 -1428 2 0
-1430z m2777 21 c1 -723 0 -1325 -3 -1338 l-6 -23 -1338 0 -1337 0 -7 32 c-8
42 -7 2633 1 2642 3 3 610 5 1347 4 l1341 -3 2 -1314z"/>
<path d="M1350 2778 l0 -1428 1430 0 1430 0 -2 1425 -3 1425 -1428 3 -1427 2
0 -1427z m2790 2 l0 -1360 -22 -5 c-13 -3 -624 -4 -1358 -3 l-1335 3 -3 1363
-2 1362 1360 0 1360 0 0 -1360z"/>
<path d="M2866 3338 c-6 -17 -53 -151 -76 -213 -10 -27 -35 -97 -55 -155 -20
-58 -45 -127 -55 -155 -10 -27 -35 -97 -55 -155 -20 -58 -46 -130 -57 -160
-11 -30 -24 -66 -28 -80 -5 -14 -22 -63 -39 -109 -17 -46 -31 -88 -31 -93 0
-4 49 -8 109 -8 l109 0 10 28 c6 15 35 97 66 182 30 85 90 256 134 380 44 124
87 245 96 270 8 25 33 94 55 154 22 60 38 113 35 118 -9 14 -214 10 -218 -4z"/>
<path d="M2210 3133 c-96 -41 -202 -85 -235 -97 -33 -13 -71 -29 -85 -35 -14
-6 -110 -46 -215 -89 l-190 -78 -3 -61 c-2 -40 1 -63 10 -70 7 -6 90 -42 183
-81 94 -38 296 -122 449 -186 153 -64 281 -116 283 -116 2 0 2 50 1 111 l-3
110 -205 85 c-113 47 -229 95 -258 107 -31 13 -51 27 -50 36 2 8 96 52 213
101 116 47 231 96 258 108 l47 21 0 105 c0 79 -3 106 -12 105 -7 -1 -92 -35
-188 -76z"/>
<path d="M3150 3102 l0 -108 73 -32 c39 -17 151 -63 247 -103 175 -72 200 -85
200 -99 0 -4 -24 -17 -52 -30 -84 -35 -461 -190 -465 -190 -2 0 -3 -49 -3
-110 0 -60 3 -110 7 -110 3 0 36 13 72 29 36 17 167 71 291 122 124 50 250
102 280 115 30 12 100 42 155 65 55 22 106 46 113 51 7 6 12 33 12 63 0 30 -5
57 -12 63 -13 10 -218 97 -438 187 -63 26 -187 78 -275 115 -231 97 -205 101
-205 -28z"/>
<path d="M4524 4201 c-2 -2 -4 -645 -4 -1428 l0 -1423 1430 0 1430 0 0 1428 0
1427 -1426 0 c-784 0 -1428 -2 -1430 -4z m2776 -1405 c0 -728 -3 -1331 -6
-1340 -6 -15 -124 -16 -1344 -16 l-1337 0 -7 31 c-3 17 -6 620 -6 1340 l0
1309 1350 0 1350 0 0 -1324z"/>
</g>
</svg>
